<svg width="71" height="113" viewBox="0 0 71 113" fill="none" xmlns="http://www.w3.org/2000/svg">
<circle cx="45" cy="87" r="18.5" stroke="#77B4E0" stroke-width="3"/>
<mask id="path-2-inside-1" fill="white">
<path d="M28.2295 106.868C24.8923 104.051 22.3184 100.439 20.7453 96.3655C19.1723 92.2915 18.6507 87.8869 19.2288 83.5583C19.8069 79.2296 21.466 75.1162 24.0531 71.5979C26.6401 68.0795 30.0717 65.2694 34.0311 63.427C37.9906 61.5847 42.3503 60.7693 46.708 61.0562C51.0657 61.3431 55.2809 62.723 58.9647 65.0685C62.6484 67.4141 65.682 70.6498 67.7854 74.477C69.8888 78.3042 70.9944 82.5995 71 86.9666L69.6966 86.9683C69.6913 82.8201 68.6411 78.7401 66.6432 75.1048C64.6452 71.4695 61.7637 68.396 58.2646 66.168C54.7655 63.94 50.7616 62.6292 46.6224 62.3567C42.4832 62.0842 38.342 62.8587 34.581 64.6088C30.82 66.3588 27.5605 69.028 25.1031 72.37C22.6458 75.712 21.0698 79.6191 20.5207 83.7308C19.9716 87.8425 20.467 92.0262 21.9612 95.896C23.4555 99.7657 25.9003 103.197 29.0703 105.872L28.2295 106.868Z"/>
</mask>
<path d="M28.2295 106.868C24.8923 104.051 22.3184 100.439 20.7453 96.3655C19.1723 92.2915 18.6507 87.8869 19.2288 83.5583C19.8069 79.2296 21.466 75.1162 24.0531 71.5979C26.6401 68.0795 30.0717 65.2694 34.0311 63.427C37.9906 61.5847 42.3503 60.7693 46.708 61.0562C51.0657 61.3431 55.2809 62.723 58.9647 65.0685C62.6484 67.4141 65.682 70.6498 67.7854 74.477C69.8888 78.3042 70.9944 82.5995 71 86.9666L69.6966 86.9683C69.6913 82.8201 68.6411 78.7401 66.6432 75.1048C64.6452 71.4695 61.7637 68.396 58.2646 66.168C54.7655 63.94 50.7616 62.6292 46.6224 62.3567C42.4832 62.0842 38.342 62.8587 34.581 64.6088C30.82 66.3588 27.5605 69.028 25.1031 72.37C22.6458 75.712 21.0698 79.6191 20.5207 83.7308C19.9716 87.8425 20.467 92.0262 21.9612 95.896C23.4555 99.7657 25.9003 103.197 29.0703 105.872L28.2295 106.868Z" stroke="#CAD1E1" stroke-width="4" mask="url(#path-2-inside-1)"/>
<path d="M40.9507 69.0088L32.7365 72.9054L4.10707 1.94841L40.9507 69.0088Z" fill="#77B4E0"/>
</svg>
